<svg xmlns="http://www.w3.org/2000/svg" xmlns:xlink="http://www.w3.org/1999/xlink" width="500" zoomAndPan="magnify" viewBox="0 0 375 374.999991" height="500" preserveAspectRatio="xMidYMid meet" version="1.2"><defs/><g id="c970d19bd9"><rect x="0" width="375" y="0" height="374.999991" style="fill:#ffffff;fill-opacity:1;stroke:none;"/><rect x="0" width="375" y="0" height="374.999991" style="fill:#eeeeee;fill-opacity:1;stroke:none;"/><g style="fill:#000000;fill-opacity:1;"><g transform="translate(63.02083, 175.653468)"><path style="stroke:none" d="M 14.765625 0 L 1.859375 0 L 21.515625 -56.921875 L 37.015625 -56.921875 L 56.640625 0 L 43.75 0 L 39.515625 -12.984375 L 18.984375 -12.984375 Z M 22.046875 -22.375 L 36.5 -22.375 L 29.484375 -43.90625 L 29.046875 -43.90625 Z M 22.046875 -22.375 "/></g></g><g style="fill:#000000;fill-opacity:1;"><g transform="translate(118.879301, 175.653468)"><path style="stroke:none" d="M 42.6875 -38.515625 C 41.925781 -41.191406 40.519531 -43.28125 38.46875 -44.78125 C 36.425781 -46.289062 33.859375 -47.046875 30.765625 -47.046875 C 26.410156 -47.046875 22.882812 -45.4375 20.1875 -42.21875 C 17.488281 -39.007812 16.140625 -34.441406 16.140625 -28.515625 C 16.140625 -22.566406 17.460938 -17.96875 20.109375 -14.71875 C 22.765625 -11.476562 26.351562 -9.859375 30.875 -9.859375 C 34.875 -9.859375 38.019531 -10.898438 40.3125 -12.984375 C 42.601562 -15.078125 43.785156 -17.882812 43.859375 -21.40625 L 31.625 -21.40625 L 31.625 -30.46875 L 55.453125 -30.46875 L 55.453125 -23.296875 C 55.453125 -18.304688 54.394531 -14.007812 52.28125 -10.40625 C 50.164062 -6.800781 47.257812 -4.035156 43.5625 -2.109375 C 39.863281 -0.179688 35.617188 0.78125 30.828125 0.78125 C 25.484375 0.78125 20.789062 -0.398438 16.75 -2.765625 C 12.71875 -5.128906 9.578125 -8.492188 7.328125 -12.859375 C 5.078125 -17.222656 3.953125 -22.40625 3.953125 -28.40625 C 3.953125 -34.550781 5.125 -39.8125 7.46875 -44.1875 C 9.820312 -48.5625 13.007812 -51.90625 17.03125 -54.21875 C 21.050781 -56.539062 25.566406 -57.703125 30.578125 -57.703125 C 34.867188 -57.703125 38.753906 -56.882812 42.234375 -55.25 C 45.722656 -53.625 48.578125 -51.367188 50.796875 -48.484375 C 53.023438 -45.597656 54.398438 -42.273438 54.921875 -38.515625 Z M 42.6875 -38.515625 "/></g></g><g style="fill:#000000;fill-opacity:1;"><g transform="translate(178.406267, 175.653468)"><path style="stroke:none" d="M 57.25 -28.453125 C 57.25 -23.378906 56.441406 -18.914062 54.828125 -15.0625 C 53.222656 -11.207031 51.03125 -8.039062 48.25 -5.5625 L 56.390625 4.671875 L 45.15625 4.671875 L 40.578125 -0.96875 C 37.484375 0.195312 34.15625 0.78125 30.59375 0.78125 C 25.539062 0.78125 21.003906 -0.363281 16.984375 -2.65625 C 12.960938 -4.957031 9.785156 -8.289062 7.453125 -12.65625 C 5.117188 -17.019531 3.953125 -22.285156 3.953125 -28.453125 C 3.953125 -34.660156 5.117188 -39.941406 7.453125 -44.296875 C 9.785156 -48.648438 12.960938 -51.972656 16.984375 -54.265625 C 21.003906 -56.554688 25.539062 -57.703125 30.59375 -57.703125 C 35.632812 -57.703125 40.164062 -56.554688 44.1875 -54.265625 C 48.207031 -51.972656 51.390625 -48.648438 53.734375 -44.296875 C 56.078125 -39.941406 57.25 -34.660156 57.25 -28.453125 Z M 26.4375 -19.78125 L 36.65625 -19.78125 L 40.890625 -14.375 C 42.203125 -15.945312 43.222656 -17.910156 43.953125 -20.265625 C 44.679688 -22.617188 45.046875 -25.347656 45.046875 -28.453125 C 45.046875 -34.492188 43.726562 -39.101562 41.09375 -42.28125 C 38.46875 -45.457031 34.96875 -47.046875 30.59375 -47.046875 C 26.226562 -47.046875 22.726562 -45.457031 20.09375 -42.28125 C 17.457031 -39.101562 16.140625 -34.492188 16.140625 -28.453125 C 16.140625 -22.429688 17.457031 -17.828125 20.09375 -14.640625 C 22.726562 -11.453125 26.226562 -9.859375 30.59375 -9.859375 C 31.6875 -9.859375 32.726562 -9.960938 33.71875 -10.171875 Z M 26.4375 -19.78125 "/></g></g><g style="fill:#000000;fill-opacity:1;"><g transform="translate(239.656232, 175.653468)"><path style="stroke:none" d="M 4.953125 -56.921875 L 19.78125 -56.921875 L 35.46875 -18.671875 L 36.125 -18.671875 L 51.8125 -56.921875 L 66.640625 -56.921875 L 66.640625 0 L 54.96875 0 L 54.96875 -37.046875 L 54.5 -37.046875 L 39.765625 -0.28125 L 31.828125 -0.28125 L 17.09375 -37.1875 L 16.625 -37.1875 L 16.625 0 L 4.953125 0 Z M 4.953125 -56.921875 "/></g></g><g style="fill:#000000;fill-opacity:1;"><g transform="translate(50.469491, 220.749977)"><path style="stroke:none" d="M 6.171875 -25.453125 L 6.171875 0 L 3.078125 0 L 3.078125 -25.453125 Z M 6.171875 -25.453125 "/></g></g><g style="fill:#000000;fill-opacity:1;"><g transform="translate(67.239547, 220.749977)"><path style="stroke:none" d="M 23.265625 -25.453125 L 23.265625 0 L 20.28125 0 L 6.40625 -19.984375 L 6.171875 -19.984375 L 6.171875 0 L 3.078125 0 L 3.078125 -25.453125 L 6.0625 -25.453125 L 19.984375 -5.421875 L 20.234375 -5.421875 L 20.234375 -25.453125 Z M 23.265625 -25.453125 "/></g></g><g style="fill:#000000;fill-opacity:1;"><g transform="translate(101.107969, 220.749977)"><path style="stroke:none" d="M 10.9375 0 L 3.078125 0 L 3.078125 -25.453125 L 11.28125 -25.453125 C 13.75 -25.453125 15.863281 -24.941406 17.625 -23.921875 C 19.382812 -22.910156 20.726562 -21.457031 21.65625 -19.5625 C 22.59375 -17.675781 23.0625 -15.414062 23.0625 -12.78125 C 23.0625 -10.125 22.585938 -7.835938 21.640625 -5.921875 C 20.703125 -4.015625 19.328125 -2.550781 17.515625 -1.53125 C 15.710938 -0.507812 13.519531 0 10.9375 0 Z M 6.171875 -2.734375 L 10.734375 -2.734375 C 13.890625 -2.734375 16.234375 -3.628906 17.765625 -5.421875 C 19.304688 -7.210938 20.078125 -9.664062 20.078125 -12.78125 C 20.078125 -15.863281 19.320312 -18.289062 17.8125 -20.0625 C 16.3125 -21.832031 14.070312 -22.71875 11.09375 -22.71875 L 6.171875 -22.71875 Z M 6.171875 -2.734375 "/></g></g><g style="fill:#000000;fill-opacity:1;"><g transform="translate(133.78348, 220.749977)"><path style="stroke:none" d="M 19.78125 -25.453125 L 22.875 -25.453125 L 22.875 -8.59375 C 22.875 -6.695312 22.421875 -5.070312 21.515625 -3.71875 C 20.609375 -2.363281 19.40625 -1.328125 17.90625 -0.609375 C 16.40625 0.0976562 14.757812 0.453125 12.96875 0.453125 C 11.1875 0.453125 9.546875 0.0976562 8.046875 -0.609375 C 6.546875 -1.328125 5.34375 -2.363281 4.4375 -3.71875 C 3.53125 -5.070312 3.078125 -6.695312 3.078125 -8.59375 L 3.078125 -25.453125 L 6.171875 -25.453125 L 6.171875 -8.59375 C 6.171875 -7.269531 6.484375 -6.148438 7.109375 -5.234375 C 7.734375 -4.316406 8.5625 -3.617188 9.59375 -3.140625 C 10.632812 -2.671875 11.757812 -2.4375 12.96875 -2.4375 C 14.1875 -2.4375 15.3125 -2.671875 16.34375 -3.140625 C 17.375 -3.617188 18.203125 -4.316406 18.828125 -5.234375 C 19.460938 -6.148438 19.78125 -7.269531 19.78125 -8.59375 Z M 19.78125 -25.453125 "/></g></g><g style="fill:#000000;fill-opacity:1;"><g transform="translate(167.254265, 220.749977)"><path style="stroke:none" d="M 17 -19.09375 C 16.851562 -20.351562 16.25 -21.328125 15.1875 -22.015625 C 14.125 -22.710938 12.820312 -23.0625 11.28125 -23.0625 C 9.59375 -23.0625 8.234375 -22.660156 7.203125 -21.859375 C 6.179688 -21.066406 5.671875 -20.0625 5.671875 -18.84375 C 5.671875 -17.925781 5.945312 -17.1875 6.5 -16.625 C 7.0625 -16.070312 7.722656 -15.640625 8.484375 -15.328125 C 9.253906 -15.015625 9.957031 -14.773438 10.59375 -14.609375 L 13.171875 -13.921875 C 13.835938 -13.742188 14.578125 -13.5 15.390625 -13.1875 C 16.210938 -12.882812 17 -12.46875 17.75 -11.9375 C 18.5 -11.414062 19.113281 -10.742188 19.59375 -9.921875 C 20.082031 -9.109375 20.328125 -8.101562 20.328125 -6.90625 C 20.328125 -5.53125 19.96875 -4.285156 19.25 -3.171875 C 18.539062 -2.066406 17.5 -1.1875 16.125 -0.53125 C 14.75 0.125 13.085938 0.453125 11.140625 0.453125 C 8.398438 0.453125 6.226562 -0.191406 4.625 -1.484375 C 3.019531 -2.785156 2.140625 -4.476562 1.984375 -6.5625 L 5.171875 -6.5625 C 5.253906 -5.601562 5.578125 -4.8125 6.140625 -4.1875 C 6.710938 -3.5625 7.4375 -3.097656 8.3125 -2.796875 C 9.1875 -2.492188 10.128906 -2.34375 11.140625 -2.34375 C 12.316406 -2.34375 13.367188 -2.535156 14.296875 -2.921875 C 15.234375 -3.304688 15.972656 -3.84375 16.515625 -4.53125 C 17.066406 -5.21875 17.34375 -6.023438 17.34375 -6.953125 C 17.34375 -7.804688 17.109375 -8.492188 16.640625 -9.015625 C 16.171875 -9.546875 15.550781 -9.976562 14.78125 -10.3125 C 14.007812 -10.644531 13.175781 -10.9375 12.28125 -11.1875 L 9.140625 -12.078125 C 7.160156 -12.648438 5.585938 -13.46875 4.421875 -14.53125 C 3.265625 -15.59375 2.6875 -16.976562 2.6875 -18.6875 C 2.6875 -20.113281 3.070312 -21.359375 3.84375 -22.421875 C 4.625 -23.492188 5.671875 -24.320312 6.984375 -24.90625 C 8.296875 -25.5 9.765625 -25.796875 11.390625 -25.796875 C 13.023438 -25.796875 14.476562 -25.503906 15.75 -24.921875 C 17.03125 -24.335938 18.046875 -23.539062 18.796875 -22.53125 C 19.546875 -21.519531 19.941406 -20.375 19.984375 -19.09375 Z M 17 -19.09375 "/></g></g><g style="fill:#000000;fill-opacity:1;"><g transform="translate(197.09661, 220.749977)"><path style="stroke:none" d="M 1.6875 -22.71875 L 1.6875 -25.453125 L 20.78125 -25.453125 L 20.78125 -22.71875 L 12.78125 -22.71875 L 12.78125 0 L 9.6875 0 L 9.6875 -22.71875 Z M 1.6875 -22.71875 "/></g></g><g style="fill:#000000;fill-opacity:1;"><g transform="translate(227.08807, 220.749977)"><path style="stroke:none" d="M 3.078125 0 L 3.078125 -25.453125 L 11.6875 -25.453125 C 13.675781 -25.453125 15.304688 -25.113281 16.578125 -24.4375 C 17.859375 -23.757812 18.800781 -22.832031 19.40625 -21.65625 C 20.019531 -20.488281 20.328125 -19.15625 20.328125 -17.65625 C 20.328125 -15.957031 19.941406 -14.476562 19.171875 -13.21875 C 18.398438 -11.96875 17.203125 -11.066406 15.578125 -10.515625 L 21.328125 0 L 17.75 0 L 12.375 -9.953125 C 12.164062 -9.941406 11.953125 -9.9375 11.734375 -9.9375 L 6.171875 -9.9375 L 6.171875 0 Z M 6.171875 -12.734375 L 11.640625 -12.734375 C 13.671875 -12.734375 15.117188 -13.171875 15.984375 -14.046875 C 16.859375 -14.921875 17.296875 -16.125 17.296875 -17.65625 C 17.296875 -19.1875 16.859375 -20.410156 15.984375 -21.328125 C 15.109375 -22.253906 13.640625 -22.71875 11.578125 -22.71875 L 6.171875 -22.71875 Z M 6.171875 -12.734375 "/></g></g><g style="fill:#000000;fill-opacity:1;"><g transform="translate(256.980128, 220.749977)"><path style="stroke:none" d="M 6.171875 -25.453125 L 6.171875 0 L 3.078125 0 L 3.078125 -25.453125 Z M 6.171875 -25.453125 "/></g></g><g style="fill:#000000;fill-opacity:1;"><g transform="translate(273.750184, 220.749977)"><path style="stroke:none" d="M 3.078125 0 L 3.078125 -25.453125 L 18.4375 -25.453125 L 18.4375 -22.71875 L 6.171875 -22.71875 L 6.171875 -14.125 L 17.65625 -14.125 L 17.65625 -11.390625 L 6.171875 -11.390625 L 6.171875 -2.734375 L 18.640625 -2.734375 L 18.640625 0 Z M 3.078125 0 "/></g></g><g style="fill:#000000;fill-opacity:1;"><g transform="translate(302.200813, 220.749977)"><path style="stroke:none" d="M 17 -19.09375 C 16.851562 -20.351562 16.25 -21.328125 15.1875 -22.015625 C 14.125 -22.710938 12.820312 -23.0625 11.28125 -23.0625 C 9.59375 -23.0625 8.234375 -22.660156 7.203125 -21.859375 C 6.179688 -21.066406 5.671875 -20.0625 5.671875 -18.84375 C 5.671875 -17.925781 5.945312 -17.1875 6.5 -16.625 C 7.0625 -16.070312 7.722656 -15.640625 8.484375 -15.328125 C 9.253906 -15.015625 9.957031 -14.773438 10.59375 -14.609375 L 13.171875 -13.921875 C 13.835938 -13.742188 14.578125 -13.5 15.390625 -13.1875 C 16.210938 -12.882812 17 -12.46875 17.75 -11.9375 C 18.5 -11.414062 19.113281 -10.742188 19.59375 -9.921875 C 20.082031 -9.109375 20.328125 -8.101562 20.328125 -6.90625 C 20.328125 -5.53125 19.96875 -4.285156 19.25 -3.171875 C 18.539062 -2.066406 17.5 -1.1875 16.125 -0.53125 C 14.75 0.125 13.085938 0.453125 11.140625 0.453125 C 8.398438 0.453125 6.226562 -0.191406 4.625 -1.484375 C 3.019531 -2.785156 2.140625 -4.476562 1.984375 -6.5625 L 5.171875 -6.5625 C 5.253906 -5.601562 5.578125 -4.8125 6.140625 -4.1875 C 6.710938 -3.5625 7.4375 -3.097656 8.3125 -2.796875 C 9.1875 -2.492188 10.128906 -2.34375 11.140625 -2.34375 C 12.316406 -2.34375 13.367188 -2.535156 14.296875 -2.921875 C 15.234375 -3.304688 15.972656 -3.84375 16.515625 -4.53125 C 17.066406 -5.21875 17.34375 -6.023438 17.34375 -6.953125 C 17.34375 -7.804688 17.109375 -8.492188 16.640625 -9.015625 C 16.171875 -9.546875 15.550781 -9.976562 14.78125 -10.3125 C 14.007812 -10.644531 13.175781 -10.9375 12.28125 -11.1875 L 9.140625 -12.078125 C 7.160156 -12.648438 5.585938 -13.46875 4.421875 -14.53125 C 3.265625 -15.59375 2.6875 -16.976562 2.6875 -18.6875 C 2.6875 -20.113281 3.070312 -21.359375 3.84375 -22.421875 C 4.625 -23.492188 5.671875 -24.320312 6.984375 -24.90625 C 8.296875 -25.5 9.765625 -25.796875 11.390625 -25.796875 C 13.023438 -25.796875 14.476562 -25.503906 15.75 -24.921875 C 17.03125 -24.335938 18.046875 -23.539062 18.796875 -22.53125 C 19.546875 -21.519531 19.941406 -20.375 19.984375 -19.09375 Z M 17 -19.09375 "/></g></g></g></svg>